<svg xmlns="http://www.w3.org/2000/svg" width="1200" height="675" viewBox="0 0 1200 675">
  <rect width="1200" height="675" fill="#0b0e13"/>
  <rect x="80" y="60" rx="20" width="1040" height="120" fill="#121722" stroke="#ffffff14"/>
  <text x="110" y="110" fill="#e6e9ef" font-family="Inter,Arial" font-size="26" font-weight="700">Strongman Controller</text>
  <text x="110" y="140" fill="#9aa3b2" font-family="Inter,Arial" font-size="16">Connect to room • View totals • Operate overlay</text>
  <rect x="80" y="200" rx="20" width="620" height="380" fill="#121722" stroke="#ffffff14"/>
  <text x="110" y="240" fill="#9aa3b2" font-family="Inter,Arial" font-size="16">Quick Add (10..200) & Custom</text>
  <g>
    <rect x="100" y="270" rx="8" width="44" height="36" fill="#1a2030" stroke="#ffffff14"/>
<rect x="148" y="270" rx="8" width="44" height="36" fill="#1a2030" stroke="#ffffff14"/>
<rect x="196" y="270" rx="8" width="44" height="36" fill="#1a2030" stroke="#ffffff14"/>
<rect x="244" y="270" rx="8" width="44" height="36" fill="#1a2030" stroke="#ffffff14"/>
<rect x="292" y="270" rx="8" width="44" height="36" fill="#1a2030" stroke="#ffffff14"/>
<rect x="340" y="270" rx="8" width="44" height="36" fill="#1a2030" stroke="#ffffff14"/>
<rect x="388" y="270" rx="8" width="44" height="36" fill="#1a2030" stroke="#ffffff14"/>
<rect x="436" y="270" rx="8" width="44" height="36" fill="#1a2030" stroke="#ffffff14"/>
<rect x="484" y="270" rx="8" width="44" height="36" fill="#1a2030" stroke="#ffffff14"/>
<rect x="532" y="270" rx="8" width="44" height="36" fill="#1a2030" stroke="#ffffff14"/>
<rect x="100" y="330" rx="8" width="44" height="36" fill="#1a2030" stroke="#ffffff14"/>
<rect x="148" y="330" rx="8" width="44" height="36" fill="#1a2030" stroke="#ffffff14"/>
<rect x="196" y="330" rx="8" width="44" height="36" fill="#1a2030" stroke="#ffffff14"/>
<rect x="244" y="330" rx="8" width="44" height="36" fill="#1a2030" stroke="#ffffff14"/>
<rect x="292" y="330" rx="8" width="44" height="36" fill="#1a2030" stroke="#ffffff14"/>
<rect x="340" y="330" rx="8" width="44" height="36" fill="#1a2030" stroke="#ffffff14"/>
<rect x="388" y="330" rx="8" width="44" height="36" fill="#1a2030" stroke="#ffffff14"/>
<rect x="436" y="330" rx="8" width="44" height="36" fill="#1a2030" stroke="#ffffff14"/>
<rect x="484" y="330" rx="8" width="44" height="36" fill="#1a2030" stroke="#ffffff14"/>
<rect x="532" y="330" rx="8" width="44" height="36" fill="#1a2030" stroke="#ffffff14"/>
  </g>
  <rect x="720" y="200" rx="20" width="400" height="380" fill="#121722" stroke="#ffffff14"/>
  <text x="750" y="240" fill="#9aa3b2" font-family="Inter,Arial" font-size="16">Settings: Goal • Unit • Milestones</text>
</svg>
